<svg width="48" height="44" viewBox="0 0 48 44" fill="none" xmlns="http://www.w3.org/2000/svg">
<path d="M24.0012 13.75C19.0415 13.75 15.0007 17.4539 15.0007 22C15.0007 26.5461 19.0415 30.25 24.0012 30.25C28.9608 30.25 33.0016 26.5461 33.0016 22C33.0016 17.4539 28.9608 13.75 24.0012 13.75ZM47.1023 20.668L38.2237 16.6031L41.3645 7.975C41.7864 6.80625 40.577 5.69766 39.3113 6.09297L29.8983 8.97188L25.4544 0.825C24.8543 -0.275 23.148 -0.275 22.548 0.825L18.1134 8.96328L8.69105 6.08438C7.41598 5.69766 6.20655 6.80625 6.63782 7.96641L9.7786 16.5945L0.900044 20.668C-0.300015 21.218 -0.300015 22.782 0.900044 23.332L9.7786 27.3969L6.63782 36.0336C6.21593 37.2023 7.42536 38.3109 8.69105 37.9156L18.104 35.0367L22.5386 43.175C23.1386 44.275 24.845 44.275 25.445 43.175L29.8796 35.0367L39.2925 37.9156C40.5676 38.3023 41.777 37.1937 41.3458 36.0336L38.205 27.4055L47.0835 23.3406C48.3023 22.782 48.3023 21.218 47.1023 20.668ZM32.486 29.7773C27.8076 34.0656 20.1947 34.0656 15.5164 29.7773C10.838 25.4891 10.838 18.5109 15.5164 14.2227C20.1947 9.93437 27.8076 9.93437 32.486 14.2227C37.1643 18.5109 37.1643 25.4891 32.486 29.7773Z" fill="white"/>
</svg>
