<svg width="80" height="80" viewBox="0 0 80 80" fill="none" xmlns="http://www.w3.org/2000/svg">
<path d="M40.0019 25C31.7359 25 25.0012 31.7344 25.0012 40C25.0012 48.2656 31.7359 55 40.0019 55C48.268 55 55.0027 48.2656 55.0027 40C55.0027 31.7344 48.268 25 40.0019 25ZM78.5038 37.5781L63.7062 30.1875L68.9408 14.5C69.644 12.375 67.6283 10.3594 65.5188 11.0781L49.8305 16.3125L42.4239 1.5C41.4239 -0.5 38.58 -0.5 37.5799 1.5L30.189 16.2969L14.4851 11.0625C12.36 10.3594 10.3443 12.375 11.063 14.4844L16.2977 30.1719L1.50007 37.5781C-0.500024 38.5781 -0.500024 41.4219 1.50007 42.4219L16.2977 49.8125L11.063 65.5156C10.3599 67.6406 12.3756 69.6562 14.4851 68.9375L30.1733 63.7031L37.5643 78.5C38.5644 80.5 41.4083 80.5 42.4083 78.5L49.7993 63.7031L65.4876 68.9375C67.6127 69.6406 69.6284 67.625 68.9096 65.5156L63.675 49.8281L78.4726 42.4375C80.5039 41.4219 80.5039 38.5781 78.5038 37.5781ZM54.1433 54.1406C46.346 61.9375 33.6579 61.9375 25.8606 54.1406C18.0634 46.3438 18.0634 33.6562 25.8606 25.8594C33.6579 18.0625 46.346 18.0625 54.1433 25.8594C61.9405 33.6562 61.9405 46.3438 54.1433 54.1406Z" fill="#F9630F"/>
</svg>
